<svg width="88" height="70" viewBox="0 0 88 70" fill="none" xmlns="http://www.w3.org/2000/svg">
<path d="M48.4 48.125H61.6C64.02 48.125 66.0917 47.2682 67.815 45.5547C69.5383 43.8411 70.4 41.7812 70.4 39.375V30.625C70.4 28.2188 69.5383 26.1589 67.815 24.4453C66.0917 22.7318 64.02 21.875 61.6 21.875H48.4V48.125ZM55 41.5625V28.4375H61.6C62.1867 28.4375 62.7 28.6562 63.14 29.0938C63.58 29.5312 63.8 30.0417 63.8 30.625V39.375C63.8 39.9583 63.58 40.4688 63.14 40.9062C62.7 41.3438 62.1867 41.5625 61.6 41.5625H55ZM19.8 48.125H35.2C36.4467 48.125 37.4917 47.7057 38.335 46.8672C39.1783 46.0286 39.6 44.9896 39.6 43.75V39.375C39.6 38.1354 39.1783 37.0964 38.335 36.2578C37.4917 35.4193 36.4467 35 35.2 35C36.4467 35 37.4917 34.5807 38.335 33.7422C39.1783 32.9036 39.6 31.8646 39.6 30.625V26.25C39.6 25.0104 39.1783 23.9714 38.335 23.1328C37.4917 22.2943 36.4467 21.875 35.2 21.875H19.8V28.4375H33V31.7188H24.2V38.2812H33V41.5625H19.8V48.125ZM8.8 70C6.38 70 4.30833 69.1432 2.585 67.4297C0.861667 65.7161 0 63.6562 0 61.25V8.75C0 6.34375 0.861667 4.28385 2.585 2.57031C4.30833 0.856771 6.38 0 8.8 0H79.2C81.62 0 83.6917 0.856771 85.415 2.57031C87.1383 4.28385 88 6.34375 88 8.75V61.25C88 63.6562 87.1383 65.7161 85.415 67.4297C83.6917 69.1432 81.62 70 79.2 70H8.8ZM8.8 61.25H79.2V8.75H8.8V61.25Z" fill="#D72E28"/>
</svg>
