<svg width="91" height="108" viewBox="0 0 91 108" fill="none" xmlns="http://www.w3.org/2000/svg">
<path d="M26.7647 0H80.2941V27H91V59.4H77.6176L58.8824 81H48.1765L29.4412 59.4H16.0588V27H26.7647V0ZM42.8235 108H0V97.2H42.8235C44.2432 97.2 45.6048 96.6311 46.6086 95.6184C47.6125 94.6057 48.1765 93.2322 48.1765 91.8V86.4H58.8824V91.8C58.8824 96.0965 57.1904 100.217 54.1788 103.255C51.1672 106.293 47.0826 108 42.8235 108ZM26.7647 37.8V48.6H34.7941L53.5294 70.2L72.2647 48.6H80.2941V37.8H69.5882V10.8H37.4706V37.8H26.7647Z" fill="#D72E28"/>
</svg>
