<svg width="266" height="217" viewBox="0 0 266 217" fill="none" xmlns="http://www.w3.org/2000/svg">
<path d="M0 10C0 4.47715 4.47715 -1.6705e-06 10 0L97.0388 2.63266e-05C99.5203 2.70772e-05 101.913 0.922671 103.752 2.58863L125.142 21.9644C126.981 23.6304 129.374 24.553 131.856 24.553H256C261.523 24.553 266 29.0301 266 34.553V186.5C266 192.023 261.523 196.5 256 196.5H9.99999C4.47715 196.5 0 192.023 0 186.5V10Z" fill="url(#paint0_linear_2009_9)"/>
<path d="M246 45.5H20C8.9543 45.5 0 54.4543 0 65.5V196.5C0 207.546 8.9543 216.5 20 216.5H246C257.046 216.5 266 207.546 266 196.5V65.5C266 54.4543 257.046 45.5 246 45.5Z" fill="url(#paint1_linear_2009_9)"/>
<path d="M141.652 140.398C136.19 145.965 129.693 148.225 122.249 147.746C116.106 147.349 110.996 144.722 106.799 140.199C98.7693 131.545 98.9772 117.511 106.67 109.193C111.362 104.12 117.061 101.217 124.016 101.011C130.978 100.804 136.677 103.609 141.657 108.788C141.657 106.828 141.708 105.182 141.638 103.542C141.593 102.49 141.94 102.081 143.01 102.127C144.586 102.194 146.167 102.164 147.745 102.139C148.546 102.126 148.84 102.457 148.839 103.263C148.814 116.073 148.866 128.883 148.761 141.692C148.731 145.34 148.287 148.997 146.81 152.408C144.267 158.281 139.796 161.995 133.733 163.682C126.113 165.802 118.605 165.49 111.46 161.826C106.675 159.371 103.555 155.34 101.473 150.433C101.188 149.76 101.333 149.48 102.079 149.486C104.025 149.503 105.971 149.506 107.916 149.484C108.508 149.478 108.864 149.742 109.161 150.22C112.557 155.688 117.617 158.024 123.876 158.202C127.688 158.31 131.315 157.741 134.737 155.952C138.483 153.993 140.591 150.912 141.196 146.759C141.492 144.729 141.597 142.682 141.652 140.398ZM108.041 124.568C107.945 130.312 110.238 134.538 114.446 137.729C118.281 140.637 122.713 141.369 127.38 140.833C133.452 140.136 138.123 137.187 140.513 131.452C142.866 125.807 142.518 120.12 138.96 115.015C135.202 109.624 129.844 107.524 123.361 108.14C114.734 108.961 108.041 116.265 108.041 124.568Z" fill="white"/>
<path d="M159.318 137C163.025 136.998 165.837 139.771 165.839 143.43C165.84 147.051 162.948 149.984 159.359 150C155.784 150.016 152.847 147.076 152.839 143.472C152.83 139.8 155.631 137.002 159.318 137Z" fill="white"/>
<defs>
<linearGradient id="paint0_linear_2009_9" x1="133" y1="20.9338" x2="133" y2="47.9275" gradientUnits="userSpaceOnUse">
<stop stop-color="#D72E28"/>
<stop offset="1" stop-color="#711815"/>
</linearGradient>
<linearGradient id="paint1_linear_2009_9" x1="133" y1="41.5" x2="133" y2="216.5" gradientUnits="userSpaceOnUse">
<stop stop-color="#D72E28"/>
<stop offset="0.841346" stop-color="#D72E28"/>
<stop offset="0.947115" stop-color="#C41C17"/>
</linearGradient>
</defs>
</svg>
