<svg width="108" height="108" viewBox="0 0 108 108" fill="none" xmlns="http://www.w3.org/2000/svg">
<path d="M45 54C42.6131 54 40.3239 54.9482 38.636 56.636C36.9482 58.3239 36 60.6131 36 63C36 65.3869 36.9482 67.6761 38.636 69.364C40.3239 71.0518 42.6131 72 45 72C47.3869 72 49.6761 71.0518 51.364 69.364C53.0518 67.6761 54 65.3869 54 63C54 60.6131 53.0518 58.3239 51.364 56.636C49.6761 54.9482 47.3869 54 45 54ZM27 36C24.6131 36 22.3239 36.9482 20.636 38.636C18.9482 40.3239 18 42.6131 18 45C18 47.3869 18.9482 49.6761 20.636 51.364C22.3239 53.0518 24.6131 54 27 54C29.3869 54 31.6761 53.0518 33.364 51.364C35.0518 49.6761 36 47.3869 36 45C36 42.6131 35.0518 40.3239 33.364 38.636C31.6761 36.9482 29.3869 36 27 36ZM27 72C24.6131 72 22.3239 72.9482 20.636 74.636C18.9482 76.3239 18 78.6131 18 81C18 83.3869 18.9482 85.6761 20.636 87.364C22.3239 89.0518 24.6131 90 27 90C29.3869 90 31.6761 89.0518 33.364 87.364C35.0518 85.6761 36 83.3869 36 81C36 78.6131 35.0518 76.3239 33.364 74.636C31.6761 72.9482 29.3869 72 27 72ZM81 36C83.3869 36 85.6761 35.0518 87.364 33.364C89.0518 31.6761 90 29.3869 90 27C90 24.6131 89.0518 22.3239 87.364 20.636C85.6761 18.9482 83.3869 18 81 18C78.6131 18 76.3239 18.9482 74.636 20.636C72.9482 22.3239 72 24.6131 72 27C72 29.3869 72.9482 31.6761 74.636 33.364C76.3239 35.0518 78.6131 36 81 36ZM63 72C60.6131 72 58.3239 72.9482 56.636 74.636C54.9482 76.3239 54 78.6131 54 81C54 83.3869 54.9482 85.6761 56.636 87.364C58.3239 89.0518 60.6131 90 63 90C65.3869 90 67.6761 89.0518 69.364 87.364C71.0518 85.6761 72 83.3869 72 81C72 78.6131 71.0518 76.3239 69.364 74.636C67.6761 72.9482 65.3869 72 63 72ZM81 54C78.6131 54 76.3239 54.9482 74.636 56.636C72.9482 58.3239 72 60.6131 72 63C72 65.3869 72.9482 67.6761 74.636 69.364C76.3239 71.0518 78.6131 72 81 72C83.3869 72 85.6761 71.0518 87.364 69.364C89.0518 67.6761 90 65.3869 90 63C90 60.6131 89.0518 58.3239 87.364 56.636C85.6761 54.9482 83.3869 54 81 54ZM63 36C60.6131 36 58.3239 36.9482 56.636 38.636C54.9482 40.3239 54 42.6131 54 45C54 47.3869 54.9482 49.6761 56.636 51.364C58.3239 53.0518 60.6131 54 63 54C65.3869 54 67.6761 53.0518 69.364 51.364C71.0518 49.6761 72 47.3869 72 45C72 42.6131 71.0518 40.3239 69.364 38.636C67.6761 36.9482 65.3869 36 63 36ZM45 18C42.6131 18 40.3239 18.9482 38.636 20.636C36.9482 22.3239 36 24.6131 36 27C36 29.3869 36.9482 31.6761 38.636 33.364C40.3239 35.0518 42.6131 36 45 36C47.3869 36 49.6761 35.0518 51.364 33.364C53.0518 31.6761 54 29.3869 54 27C54 24.6131 53.0518 22.3239 51.364 20.636C49.6761 18.9482 47.3869 18 45 18Z" fill="#D72E28"/>
</svg>
