<svg width="108" height="108" viewBox="0 0 108 108" fill="none" xmlns="http://www.w3.org/2000/svg">
<path d="M54 108C46.53 108 39.51 106.583 32.94 103.748C26.37 100.913 20.655 97.065 15.795 92.205C10.935 87.345 7.0875 81.63 4.2525 75.06C1.4175 68.49 0 61.47 0 54C0 46.53 1.4175 39.51 4.2525 32.94C7.0875 26.37 10.935 20.655 15.795 15.795C20.655 10.935 26.37 7.0875 32.94 4.2525C39.51 1.4175 46.53 0 54 0C61.47 0 68.49 1.4175 75.06 4.2525C81.63 7.0875 87.345 10.935 92.205 15.795C97.065 20.655 100.913 26.37 103.748 32.94C106.583 39.51 108 46.53 108 54C108 56.43 107.865 58.815 107.595 61.155C107.325 63.495 106.875 65.79 106.245 68.04C104.985 66.6 103.523 65.385 101.858 64.395C100.193 63.405 98.37 62.73 96.39 62.37C96.66 61.02 96.8625 59.6475 96.9975 58.2525C97.1325 56.8575 97.2 55.44 97.2 54C97.2 41.94 93.015 31.725 84.645 23.355C76.275 14.985 66.06 10.8 54 10.8C41.94 10.8 31.725 14.985 23.355 23.355C14.985 31.725 10.8 41.94 10.8 54C10.8 66.06 14.985 76.275 23.355 84.645C31.725 93.015 41.94 97.2 54 97.2C58.59 97.2 62.9775 96.525 67.1625 95.175C71.3475 93.825 75.195 91.935 78.705 89.505C79.785 91.035 81.1125 92.385 82.6875 93.555C84.2625 94.725 85.95 95.625 87.75 96.255C83.16 99.945 78.0075 102.825 72.2925 104.895C66.5775 106.965 60.48 108 54 108ZM88.3575 84.4425C87.0525 83.1375 86.4 81.54 86.4 79.65C86.4 77.76 87.0525 76.1625 88.3575 74.8575C89.6625 73.5525 91.26 72.9 93.15 72.9C95.04 72.9 96.6375 73.5525 97.9425 74.8575C99.2475 76.1625 99.9 77.76 99.9 79.65C99.9 81.54 99.2475 83.1375 97.9425 84.4425C96.6375 85.7475 95.04 86.4 93.15 86.4C91.26 86.4 89.6625 85.7475 88.3575 84.4425ZM71.82 79.38L48.6 56.16V27H59.4V51.84L79.38 71.82L71.82 79.38Z" fill="#D72E28"/>
</svg>
