<svg width="94" height="108" viewBox="0 0 94 108" fill="none" xmlns="http://www.w3.org/2000/svg">
<path d="M11.7365 96H82.2635L73.8884 36H20.1116L11.7365 96ZM47 24C48.6652 24 50.0611 23.425 51.1875 22.275C52.314 21.125 52.8773 19.7 52.8773 18C52.8773 16.3 52.314 14.875 51.1875 13.725C50.0611 12.575 48.6652 12 47 12C45.3348 12 43.9389 12.575 42.8125 13.725C41.686 14.875 41.1227 16.3 41.1227 18C41.1227 19.7 41.686 21.125 42.8125 22.275C43.9389 23.425 45.3348 24 47 24ZM63.6032 24H73.8884C76.8271 24 79.3739 25 81.5289 27C83.6839 29 85.0062 31.45 85.496 34.35L93.8711 94.35C94.3609 97.95 93.4548 101.125 91.1529 103.875C88.851 106.625 85.8878 108 82.2635 108H11.7365C8.11216 108 5.14904 106.625 2.84712 103.875C0.545193 101.125 -0.360884 97.95 0.128887 94.35L8.50398 34.35C8.99375 31.45 10.3161 29 12.4711 27C14.6261 25 17.1729 24 20.1116 24H30.3968C30.1029 23 29.858 22.025 29.6621 21.075C29.4662 20.125 29.3682 19.1 29.3682 18C29.3682 13 31.0824 8.75 34.5108 5.25C37.9392 1.75 42.1023 0 47 0C51.8977 0 56.0608 1.75 59.4892 5.25C62.9176 8.75 64.6318 13 64.6318 18C64.6318 19.1 64.5338 20.125 64.3379 21.075C64.142 22.025 63.8971 23 63.6032 24Z" fill="#D72E28"/>
</svg>
